<svg version="1.2" xmlns="http://www.w3.org/2000/svg" viewBox="0 0 162 162" width="162" height="162">
	<style>
		.s0 { opacity: 1;fill: #b6b9c2 } 
	</style>
	<g id="Layer 1">
		<path id="Path 0" fill-rule="evenodd" class="s0" d="m56 1.16c-3.58 0.44-9.2 1.71-12.5 2.8-3.3 1.1-8.83 3.7-12.28 5.77-3.46 2.07-8.78 6.25-11.82 9.27-3.03 3.02-7.16 7.98-9.17 11-2.01 3.02-5 9.33-6.64 14-2.62 7.48-2.99 9.88-3.04 20-0.04 9.32 0.39 12.92 2.27 19 1.28 4.13 4.19 10.65 6.47 14.5 2.28 3.85 6.63 9.48 9.68 12.52 3.04 3.03 8.23 7.16 11.53 9.17 3.3 2.01 9.38 4.77 13.5 6.14 4.13 1.36 10.65 2.77 14.5 3.13 3.85 0.36 10.26 0.17 14.25-0.41 3.99-0.58 10.74-2.4 15-4.05 4.26-1.65 10.79-5.25 14.5-8 3.71-2.75 8.82-7.59 11.34-10.75 2.53-3.16 6.13-8.9 8-12.75 1.87-3.85 4.07-10.15 4.89-14 0.82-3.85 1.49-10.37 1.49-14.5 0-4.12-0.67-10.31-1.48-13.75-0.82-3.44-2.77-9.06-4.34-12.5-1.57-3.44-5.06-9.14-7.75-12.67-2.7-3.52-7.6-8.46-10.9-10.96-3.3-2.5-9.15-5.97-13-7.71-3.85-1.74-9.25-3.64-12-4.22-2.75-0.58-7.47-1.23-10.5-1.45-3.03-0.21-8.42-0.02-12 0.42zm-6 17.68c3.17-1 8.89-1.76 13.5-1.81 5.26-0.05 10.22 0.6 14.5 1.89 3.58 1.08 9.4 3.9 12.95 6.27 3.55 2.37 8.39 6.79 10.75 9.81 2.36 3.03 5.47 8.43 6.9 12 1.64 4.08 2.8 9.29 3.13 14 0.28 4.13 0.02 9.97-0.6 13-0.61 3.03-2.43 8.2-4.05 11.5-1.62 3.3-4.7 8.03-6.84 10.5-2.15 2.47-6.34 6.15-9.32 8.18-2.98 2.02-7.45 4.39-9.92 5.28-2.47 0.88-7.31 2.04-10.75 2.57-4.15 0.64-8.52 0.62-13-0.07-3.79-0.58-10.04-2.59-14.25-4.6-5.1-2.42-9.27-5.37-13.03-9.21-3.03-3.11-6.73-8.12-8.22-11.15-1.48-3.03-3.38-8.2-4.22-11.5-0.85-3.3-1.54-7.8-1.55-10 0-2.2 0.45-6.47 1.01-9.5 0.55-3.02 2.54-8.65 4.42-12.5 2.01-4.12 5.61-9.22 8.75-12.39 2.94-2.97 7.37-6.55 9.84-7.96 2.48-1.42 6.98-3.35 10-4.31zm64.25 96.79l-8.25 8.37c26.74 28.07 35.29 36.62 36.25 37.11 0.96 0.49 3.66 0.9 6 0.92 2.8 0.02 5.44-0.76 7.75-2.28 2.19-1.45 4.04-3.8 4.93-6.28 1.14-3.14 1.2-4.8 0.31-7.97-0.92-3.29-4.31-7.05-19.18-21.25-9.93-9.49-18.4-17.19-18.81-17.12-0.41 0.07-4.46 3.9-9 8.5z"/>
	</g>
</svg>